include "include/gb/hUGE.inc"

SECTION "Eerie Song Data", ROMX, BANK[2]

eerie_song::
	db 4
	dw .order_cnt
	dw order1, order2, order3, order4
	dw duty_instruments, wave_instruments, noise_instruments
	dw routines
	dw waves

.order_cnt: db 32
order1: dw P0,P0,P4,P0,P0,P0,P4,P0,P6,P8,P10,P12,P6,P8,P10,P12
order2: dw P1,P1,P5,P1,P1,P1,P5,P1,P7,P9,P11,P13,P7,P9,P11,P13
order3: dw P3,P3,P3,P3,P3,P3,P3,P3,P3,P3,P3,P3,P3,P3,P3,P3
order4: dw P3,P3,P3,P3,P3,P3,P3,P3,P3,P3,P3,P3,P3,P3,P3,P3

P0:
 dn A_4,1,$000
 dn ___,0,$000
 dn ___,0,$000
 dn ___,0,$000
 dn ___,0,$000
 dn ___,0,$000
 dn ___,0,$000
 dn ___,0,$000
 dn A#4,1,$000
 dn ___,0,$000
 dn ___,0,$000
 dn ___,0,$000
 dn ___,0,$000
 dn ___,0,$000
 dn ___,0,$000
 dn ___,0,$000
 dn D_5,1,$000
 dn ___,0,$000
 dn ___,0,$000
 dn ___,0,$000
 dn ___,0,$000
 dn ___,0,$000
 dn ___,0,$000
 dn ___,0,$000
 dn ___,0,$000
 dn ___,0,$000
 dn ___,0,$000
 dn ___,0,$000
 dn ___,0,$000
 dn ___,0,$000
 dn ___,0,$000
 dn ___,0,$000
 dn A_4,1,$000
 dn ___,0,$000
 dn ___,0,$000
 dn ___,0,$000
 dn ___,0,$000
 dn ___,0,$000
 dn ___,0,$000
 dn ___,0,$000
 dn A#4,1,$000
 dn ___,0,$000
 dn ___,0,$000
 dn ___,0,$000
 dn D_5,1,$000
 dn ___,0,$000
 dn ___,0,$000
 dn ___,0,$000
 dn ___,0,$000
 dn ___,0,$000
 dn ___,0,$000
 dn ___,0,$000
 dn A#4,1,$000
 dn ___,0,$000
 dn ___,0,$000
 dn ___,0,$000
 dn ___,0,$000
 dn ___,0,$000
 dn ___,0,$000
 dn ___,0,$000
 dn ___,0,$000
 dn ___,0,$000
 dn ___,0,$000
 dn ___,0,$000

P1:
 dn ___,0,$8FF
 dn ___,0,$000
 dn ___,0,$8DF
 dn ___,0,$000
 dn A_4,2,$201
 dn ___,0,$000
 dn ___,0,$8FD
 dn ___,0,$000
 dn ___,0,$8FF
 dn ___,0,$000
 dn ___,0,$8DF
 dn ___,0,$000
 dn A#4,2,$201
 dn ___,0,$000
 dn ___,0,$8FD
 dn ___,0,$000
 dn ___,0,$8FF
 dn ___,0,$000
 dn ___,0,$8DF
 dn ___,0,$000
 dn D_5,2,$201
 dn ___,0,$000
 dn ___,0,$8FD
 dn ___,0,$000
 dn ___,0,$8FF
 dn ___,0,$000
 dn ___,0,$8DF
 dn ___,0,$000
 dn ___,0,$8FF
 dn ___,0,$000
 dn ___,0,$8FD
 dn ___,0,$000
 dn ___,0,$8FF
 dn ___,0,$000
 dn ___,0,$8DF
 dn ___,0,$000
 dn A_4,2,$201
 dn ___,0,$000
 dn ___,0,$8FD
 dn ___,0,$000
 dn ___,0,$8FF
 dn ___,0,$000
 dn ___,0,$8DF
 dn ___,0,$000
 dn A#4,2,$201
 dn ___,0,$000
 dn ___,0,$8FD
 dn ___,0,$000
 dn D_5,2,$201
 dn ___,0,$000
 dn ___,0,$8DF
 dn ___,0,$000
 dn ___,0,$8FF
 dn ___,0,$000
 dn ___,0,$8FD
 dn ___,0,$000
 dn A#4,2,$201
 dn ___,0,$000
 dn ___,0,$8DF
 dn ___,0,$000
 dn ___,0,$8FF
 dn ___,0,$000
 dn ___,0,$8FD
 dn ___,0,$000

P3:
 dn ___,0,$F04
 dn ___,0,$F03
 dn ___,0,$F04
 dn ___,0,$F03
 dn ___,0,$F04
 dn ___,0,$F03
 dn ___,0,$F04
 dn ___,0,$F03
 dn ___,0,$F04
 dn ___,0,$F03
 dn ___,0,$F04
 dn ___,0,$F03
 dn ___,0,$F04
 dn ___,0,$F03
 dn ___,0,$F04
 dn ___,0,$F03
 dn ___,0,$F04
 dn ___,0,$F03
 dn ___,0,$F04
 dn ___,0,$F03
 dn ___,0,$F04
 dn ___,0,$F03
 dn ___,0,$F04
 dn ___,0,$F03
 dn ___,0,$F04
 dn ___,0,$F03
 dn ___,0,$F04
 dn ___,0,$F03
 dn ___,0,$F04
 dn ___,0,$F03
 dn ___,0,$F04
 dn ___,0,$F03
 dn ___,0,$F04
 dn ___,0,$F03
 dn ___,0,$F04
 dn ___,0,$F03
 dn ___,0,$F04
 dn ___,0,$F03
 dn ___,0,$F04
 dn ___,0,$F03
 dn ___,0,$F04
 dn ___,0,$F03
 dn ___,0,$F04
 dn ___,0,$F03
 dn ___,0,$F04
 dn ___,0,$F03
 dn ___,0,$F04
 dn ___,0,$F03
 dn ___,0,$F04
 dn ___,0,$F03
 dn ___,0,$F04
 dn ___,0,$F03
 dn ___,0,$F04
 dn ___,0,$F03
 dn ___,0,$F04
 dn ___,0,$F03
 dn ___,0,$F04
 dn ___,0,$F03
 dn ___,0,$F04
 dn ___,0,$F03
 dn ___,0,$F04
 dn ___,0,$F03
 dn ___,0,$F04
 dn ___,0,$F03

P4:
 dn A_4,1,$000
 dn ___,0,$000
 dn ___,0,$000
 dn ___,0,$000
 dn ___,0,$000
 dn ___,0,$000
 dn ___,0,$000
 dn ___,0,$000
 dn A#4,1,$000
 dn ___,0,$000
 dn ___,0,$000
 dn ___,0,$000
 dn ___,0,$000
 dn ___,0,$000
 dn ___,0,$000
 dn ___,0,$000
 dn D#5,1,$000
 dn ___,0,$000
 dn ___,0,$000
 dn ___,0,$000
 dn ___,0,$000
 dn ___,0,$000
 dn ___,0,$000
 dn ___,0,$000
 dn ___,0,$000
 dn ___,0,$000
 dn ___,0,$000
 dn ___,0,$000
 dn ___,0,$000
 dn ___,0,$000
 dn ___,0,$000
 dn ___,0,$000
 dn A_4,1,$000
 dn ___,0,$000
 dn ___,0,$000
 dn ___,0,$000
 dn ___,0,$000
 dn ___,0,$000
 dn ___,0,$000
 dn ___,0,$000
 dn A#4,1,$000
 dn ___,0,$000
 dn ___,0,$000
 dn ___,0,$000
 dn D#5,1,$000
 dn ___,0,$000
 dn ___,0,$000
 dn ___,0,$000
 dn ___,0,$000
 dn ___,0,$000
 dn ___,0,$000
 dn ___,0,$000
 dn A#4,1,$000
 dn ___,0,$000
 dn ___,0,$000
 dn ___,0,$000
 dn ___,0,$000
 dn ___,0,$000
 dn ___,0,$000
 dn ___,0,$000
 dn ___,0,$000
 dn ___,0,$000
 dn ___,0,$000
 dn ___,0,$000

P5:
 dn ___,0,$8FF
 dn ___,0,$000
 dn ___,0,$8DF
 dn ___,0,$000
 dn A_4,2,$201
 dn ___,0,$000
 dn ___,0,$8FD
 dn ___,0,$000
 dn ___,0,$8FF
 dn ___,0,$000
 dn ___,0,$8DF
 dn ___,0,$000
 dn A#4,2,$201
 dn ___,0,$000
 dn ___,0,$8FD
 dn ___,0,$000
 dn ___,0,$8FF
 dn ___,0,$000
 dn ___,0,$8DF
 dn ___,0,$000
 dn D#5,2,$201
 dn ___,0,$000
 dn ___,0,$8FD
 dn ___,0,$000
 dn ___,0,$8FF
 dn ___,0,$000
 dn ___,0,$8DF
 dn ___,0,$000
 dn ___,0,$8FF
 dn ___,0,$000
 dn ___,0,$8FD
 dn ___,0,$000
 dn ___,0,$8FF
 dn ___,0,$000
 dn ___,0,$8DF
 dn ___,0,$000
 dn A_4,2,$201
 dn ___,0,$000
 dn ___,0,$8FD
 dn ___,0,$000
 dn ___,0,$8FF
 dn ___,0,$000
 dn ___,0,$8DF
 dn ___,0,$000
 dn A#4,2,$201
 dn ___,0,$000
 dn ___,0,$8FD
 dn ___,0,$000
 dn D#5,2,$201
 dn ___,0,$000
 dn ___,0,$8DF
 dn ___,0,$000
 dn ___,0,$8FF
 dn ___,0,$000
 dn ___,0,$8FD
 dn ___,0,$000
 dn A#4,2,$201
 dn ___,0,$000
 dn ___,0,$8DF
 dn ___,0,$000
 dn ___,0,$8FF
 dn ___,0,$000
 dn ___,0,$8FD
 dn ___,0,$000

P6:
 dn F_5,1,$000
 dn ___,0,$000
 dn ___,0,$000
 dn ___,0,$000
 dn ___,0,$000
 dn ___,0,$000
 dn ___,0,$000
 dn ___,0,$000
 dn ___,0,$000
 dn ___,0,$000
 dn ___,0,$000
 dn ___,0,$000
 dn ___,0,$000
 dn ___,0,$000
 dn ___,0,$000
 dn ___,0,$000
 dn ___,0,$000
 dn ___,0,$000
 dn ___,0,$000
 dn ___,0,$000
 dn ___,0,$000
 dn ___,0,$000
 dn ___,0,$000
 dn ___,0,$000
 dn G_5,1,$000
 dn ___,0,$000
 dn ___,0,$000
 dn ___,0,$000
 dn F_5,1,$000
 dn ___,0,$000
 dn ___,0,$000
 dn ___,0,$000
 dn ___,0,$000
 dn ___,0,$000
 dn ___,0,$000
 dn ___,0,$000
 dn ___,0,$000
 dn ___,0,$000
 dn ___,0,$000
 dn ___,0,$000
 dn ___,0,$000
 dn ___,0,$000
 dn ___,0,$000
 dn ___,0,$000
 dn ___,0,$000
 dn ___,0,$000
 dn ___,0,$000
 dn ___,0,$000
 dn ___,0,$000
 dn ___,0,$000
 dn ___,0,$000
 dn ___,0,$000
 dn C_5,1,$000
 dn ___,0,$000
 dn ___,0,$000
 dn ___,0,$000
 dn D_5,1,$000
 dn ___,0,$000
 dn ___,0,$000
 dn ___,0,$000
 dn D#5,1,$000
 dn ___,0,$000
 dn ___,0,$000
 dn ___,0,$000

P7:
 dn ___,0,$8FF
 dn ___,0,$000
 dn ___,0,$8DF
 dn ___,0,$000
 dn F_5,2,$201
 dn ___,0,$000
 dn ___,0,$8FD
 dn ___,0,$000
 dn ___,0,$8FF
 dn ___,0,$000
 dn ___,0,$8DF
 dn ___,0,$000
 dn ___,0,$8FF
 dn ___,0,$000
 dn ___,0,$8FD
 dn ___,0,$000
 dn ___,0,$8FF
 dn ___,0,$000
 dn ___,0,$8DF
 dn ___,0,$000
 dn ___,0,$8FF
 dn ___,0,$000
 dn ___,0,$8FD
 dn ___,0,$000
 dn ___,0,$8FF
 dn ___,0,$000
 dn ___,0,$8DF
 dn ___,0,$000
 dn G_5,2,$201
 dn ___,0,$000
 dn ___,0,$8FD
 dn ___,0,$000
 dn F_5,2,$201
 dn ___,0,$000
 dn ___,0,$8DF
 dn ___,0,$000
 dn ___,0,$8FF
 dn ___,0,$000
 dn ___,0,$8FD
 dn ___,0,$000
 dn ___,0,$8FF
 dn ___,0,$000
 dn ___,0,$8DF
 dn ___,0,$000
 dn ___,0,$8FF
 dn ___,0,$000
 dn ___,0,$8FD
 dn ___,0,$000
 dn ___,0,$8FF
 dn ___,0,$000
 dn ___,0,$8DF
 dn ___,0,$000
 dn ___,0,$8FF
 dn ___,0,$000
 dn ___,0,$8FD
 dn ___,0,$000
 dn C_5,2,$201
 dn ___,0,$000
 dn ___,0,$8DF
 dn ___,0,$000
 dn D_5,2,$201
 dn ___,0,$000
 dn ___,0,$8FD
 dn ___,0,$000

P8:
 dn F_5,1,$000
 dn ___,0,$000
 dn ___,0,$000
 dn ___,0,$000
 dn ___,0,$000
 dn ___,0,$000
 dn ___,0,$000
 dn ___,0,$000
 dn ___,0,$000
 dn ___,0,$000
 dn ___,0,$000
 dn ___,0,$000
 dn ___,0,$000
 dn ___,0,$000
 dn ___,0,$000
 dn ___,0,$000
 dn ___,0,$000
 dn ___,0,$000
 dn ___,0,$000
 dn ___,0,$000
 dn ___,0,$000
 dn ___,0,$000
 dn ___,0,$000
 dn ___,0,$000
 dn G_5,1,$000
 dn ___,0,$000
 dn ___,0,$000
 dn ___,0,$000
 dn F_5,1,$000
 dn ___,0,$000
 dn ___,0,$000
 dn ___,0,$000
 dn ___,0,$000
 dn ___,0,$000
 dn ___,0,$000
 dn ___,0,$000
 dn ___,0,$000
 dn ___,0,$000
 dn ___,0,$000
 dn ___,0,$000
 dn ___,0,$000
 dn ___,0,$000
 dn ___,0,$000
 dn ___,0,$000
 dn ___,0,$000
 dn ___,0,$000
 dn ___,0,$000
 dn ___,0,$000
 dn ___,0,$000
 dn ___,0,$000
 dn ___,0,$000
 dn ___,0,$000
 dn F_5,1,$000
 dn ___,0,$000
 dn ___,0,$000
 dn ___,0,$000
 dn D#5,1,$000
 dn ___,0,$000
 dn ___,0,$000
 dn ___,0,$000
 dn D_5,1,$000
 dn ___,0,$000
 dn ___,0,$000
 dn ___,0,$000

P9:
 dn D#5,2,$201
 dn ___,0,$000
 dn ___,0,$8DF
 dn ___,0,$000
 dn F_5,2,$201
 dn ___,0,$000
 dn ___,0,$8FD
 dn ___,0,$000
 dn ___,0,$8FF
 dn ___,0,$000
 dn ___,0,$8DF
 dn ___,0,$000
 dn ___,0,$8FF
 dn ___,0,$000
 dn ___,0,$8FD
 dn ___,0,$000
 dn ___,0,$8FF
 dn ___,0,$000
 dn ___,0,$8DF
 dn ___,0,$000
 dn ___,0,$8FF
 dn ___,0,$000
 dn ___,0,$8FD
 dn ___,0,$000
 dn ___,0,$8FF
 dn ___,0,$000
 dn ___,0,$8DF
 dn ___,0,$000
 dn G_5,2,$201
 dn ___,0,$000
 dn ___,0,$8FD
 dn ___,0,$000
 dn F_5,2,$201
 dn ___,0,$000
 dn ___,0,$8DF
 dn ___,0,$000
 dn ___,0,$8FF
 dn ___,0,$000
 dn ___,0,$8FD
 dn ___,0,$000
 dn ___,0,$8FF
 dn ___,0,$000
 dn ___,0,$8DF
 dn ___,0,$000
 dn ___,0,$8FF
 dn ___,0,$000
 dn ___,0,$8FD
 dn ___,0,$000
 dn ___,0,$8FF
 dn ___,0,$000
 dn ___,0,$8DF
 dn ___,0,$000
 dn ___,0,$8FF
 dn ___,0,$000
 dn ___,0,$8FD
 dn ___,0,$000
 dn F_5,2,$201
 dn ___,0,$000
 dn ___,0,$8DF
 dn ___,0,$000
 dn D#5,2,$201
 dn ___,0,$000
 dn ___,0,$8FD
 dn ___,0,$000

P10:
 dn D#5,1,$000
 dn ___,0,$000
 dn ___,0,$000
 dn ___,0,$000
 dn ___,0,$000
 dn ___,0,$000
 dn ___,0,$000
 dn ___,0,$000
 dn ___,0,$000
 dn ___,0,$000
 dn ___,0,$000
 dn ___,0,$000
 dn ___,0,$000
 dn ___,0,$000
 dn ___,0,$000
 dn ___,0,$000
 dn ___,0,$000
 dn ___,0,$000
 dn ___,0,$000
 dn ___,0,$000
 dn ___,0,$000
 dn ___,0,$000
 dn ___,0,$000
 dn ___,0,$000
 dn F_5,1,$000
 dn ___,0,$000
 dn ___,0,$000
 dn ___,0,$000
 dn D#5,1,$000
 dn ___,0,$000
 dn ___,0,$000
 dn ___,0,$000
 dn ___,0,$000
 dn ___,0,$000
 dn ___,0,$000
 dn ___,0,$000
 dn ___,0,$000
 dn ___,0,$000
 dn ___,0,$000
 dn ___,0,$000
 dn ___,0,$000
 dn ___,0,$000
 dn ___,0,$000
 dn ___,0,$000
 dn ___,0,$000
 dn ___,0,$000
 dn ___,0,$000
 dn ___,0,$000
 dn ___,0,$000
 dn ___,0,$000
 dn ___,0,$000
 dn ___,0,$000
 dn C_5,1,$000
 dn ___,0,$000
 dn ___,0,$000
 dn ___,0,$000
 dn D_5,1,$000
 dn ___,0,$000
 dn ___,0,$000
 dn ___,0,$000
 dn D#5,1,$000
 dn ___,0,$000
 dn ___,0,$000
 dn ___,0,$000

P11:
 dn D_5,2,$201
 dn ___,0,$000
 dn ___,0,$8DF
 dn ___,0,$000
 dn D#5,2,$201
 dn ___,0,$000
 dn ___,0,$8FD
 dn ___,0,$000
 dn ___,0,$8FF
 dn ___,0,$000
 dn ___,0,$8DF
 dn ___,0,$000
 dn ___,0,$8FF
 dn ___,0,$000
 dn ___,0,$8FD
 dn ___,0,$000
 dn ___,0,$8FF
 dn ___,0,$000
 dn ___,0,$8DF
 dn ___,0,$000
 dn ___,0,$8FF
 dn ___,0,$000
 dn ___,0,$8FD
 dn ___,0,$000
 dn ___,0,$8FF
 dn ___,0,$000
 dn ___,0,$8DF
 dn ___,0,$000
 dn F_5,2,$201
 dn ___,0,$000
 dn ___,0,$8FD
 dn ___,0,$000
 dn D#5,2,$201
 dn ___,0,$000
 dn ___,0,$8DF
 dn ___,0,$000
 dn ___,0,$8FF
 dn ___,0,$000
 dn ___,0,$8FD
 dn ___,0,$000
 dn ___,0,$8FF
 dn ___,0,$000
 dn ___,0,$8DF
 dn ___,0,$000
 dn ___,0,$8FF
 dn ___,0,$000
 dn ___,0,$8FD
 dn ___,0,$000
 dn ___,0,$8FF
 dn ___,0,$000
 dn ___,0,$8DF
 dn ___,0,$000
 dn ___,0,$8FF
 dn ___,0,$000
 dn ___,0,$8FD
 dn ___,0,$000
 dn C_5,2,$201
 dn ___,0,$000
 dn ___,0,$8DF
 dn ___,0,$000
 dn D_5,2,$201
 dn ___,0,$000
 dn ___,0,$8FD
 dn ___,0,$000

P12:
 dn D_5,1,$000
 dn ___,0,$000
 dn ___,0,$000
 dn ___,0,$000
 dn ___,0,$000
 dn ___,0,$000
 dn ___,0,$000
 dn ___,0,$000
 dn ___,0,$000
 dn ___,0,$000
 dn ___,0,$000
 dn ___,0,$000
 dn ___,0,$000
 dn ___,0,$000
 dn ___,0,$000
 dn ___,0,$000
 dn D_5,1,$C0A
 dn ___,0,$000
 dn ___,0,$000
 dn ___,0,$000
 dn ___,0,$000
 dn ___,0,$000
 dn ___,0,$000
 dn ___,0,$000
 dn ___,0,$000
 dn ___,0,$000
 dn ___,0,$000
 dn ___,0,$000
 dn ___,0,$000
 dn ___,0,$000
 dn ___,0,$000
 dn ___,0,$000
 dn D_5,1,$C04
 dn ___,0,$000
 dn ___,0,$000
 dn ___,0,$000
 dn ___,0,$000
 dn ___,0,$000
 dn ___,0,$000
 dn ___,0,$000
 dn ___,0,$000
 dn ___,0,$000
 dn ___,0,$000
 dn ___,0,$000
 dn ___,0,$000
 dn ___,0,$000
 dn ___,0,$000
 dn ___,0,$000
 dn ___,0,$000
 dn ___,0,$000
 dn ___,0,$000
 dn ___,0,$000
 dn ___,0,$000
 dn ___,0,$000
 dn ___,0,$000
 dn ___,0,$000
 dn ___,0,$000
 dn ___,0,$000
 dn ___,0,$000
 dn ___,0,$000
 dn ___,0,$000
 dn ___,0,$000
 dn ___,0,$000
 dn ___,0,$000

P13:
 dn D#5,2,$201
 dn ___,0,$000
 dn ___,0,$8DF
 dn ___,0,$000
 dn D_5,2,$201
 dn ___,0,$000
 dn ___,0,$8FD
 dn ___,0,$000
 dn ___,0,$8FF
 dn ___,0,$000
 dn ___,0,$8DF
 dn ___,0,$000
 dn ___,0,$8FF
 dn ___,0,$000
 dn ___,0,$8FD
 dn ___,0,$000
 dn ___,0,$8FF
 dn ___,0,$000
 dn ___,0,$8DF
 dn ___,0,$000
 dn D_5,2,$C02
 dn ___,0,$000
 dn ___,0,$8FD
 dn ___,0,$000
 dn ___,0,$8FF
 dn ___,0,$000
 dn ___,0,$8DF
 dn ___,0,$000
 dn ___,0,$8FF
 dn ___,0,$000
 dn ___,0,$8FD
 dn ___,0,$000
 dn ___,0,$8FF
 dn ___,0,$000
 dn ___,0,$8DF
 dn ___,0,$000
 dn D_5,2,$C01
 dn ___,0,$000
 dn ___,0,$8FD
 dn ___,0,$000
 dn ___,0,$8FF
 dn ___,0,$000
 dn ___,0,$8DF
 dn ___,0,$000
 dn ___,0,$8FF
 dn ___,0,$000
 dn ___,0,$8FD
 dn ___,0,$000
 dn ___,0,$8FF
 dn ___,0,$000
 dn ___,0,$8DF
 dn ___,0,$000
 dn ___,0,$8FF
 dn ___,0,$000
 dn ___,0,$8FD
 dn ___,0,$000
 dn ___,0,$8FF
 dn ___,0,$000
 dn ___,0,$8DF
 dn ___,0,$000
 dn ___,0,$8FF
 dn ___,0,$000
 dn ___,0,$8FD
 dn ___,0,$000

itNoiseSP1:
 dn ___,0,$000
 dn 36,0,$000
 dn 36,0,$000
 dn 36,4,$000
 dn 36,0,$000
 dn 36,0,$000
 dn 36,0,$000
 dn ___,0,$000
 dn ___,0,$000
 dn ___,0,$000
 dn ___,0,$000
 dn ___,0,$000
 dn ___,0,$000
 dn ___,0,$000
 dn ___,0,$000
 dn ___,0,$000
 dn ___,0,$000
 dn ___,0,$000
 dn ___,0,$000
 dn ___,0,$000
 dn ___,0,$000
 dn ___,0,$000
 dn ___,0,$000
 dn ___,0,$000
 dn ___,0,$000
 dn ___,0,$000
 dn ___,0,$000
 dn ___,0,$000
 dn ___,0,$000
 dn ___,0,$000
 dn ___,0,$000
 dn ___,1,$000

itNoiseSP2:
 dn ___,0,$000
 dn 36,0,$000
 dn 36,0,$000
 dn 36,4,$000
 dn 36,0,$000
 dn 36,0,$000
 dn 36,0,$000
 dn ___,0,$000
 dn ___,0,$000
 dn ___,0,$000
 dn ___,0,$000
 dn ___,0,$000
 dn ___,0,$000
 dn ___,0,$000
 dn ___,0,$000
 dn ___,0,$000
 dn ___,0,$000
 dn ___,0,$000
 dn ___,0,$000
 dn ___,0,$000
 dn ___,0,$000
 dn ___,0,$000
 dn ___,0,$000
 dn ___,0,$000
 dn ___,0,$000
 dn ___,0,$000
 dn ___,0,$000
 dn ___,0,$000
 dn ___,0,$000
 dn ___,0,$000
 dn ___,0,$000
 dn ___,1,$000

itNoiseSP3:
 dn ___,0,$000
 dn 36,0,$000
 dn 36,0,$000
 dn 36,4,$000
 dn 36,0,$000
 dn 36,0,$000
 dn 36,0,$000
 dn ___,0,$000
 dn ___,0,$000
 dn ___,0,$000
 dn ___,0,$000
 dn ___,0,$000
 dn ___,0,$000
 dn ___,0,$000
 dn ___,0,$000
 dn ___,0,$000
 dn ___,0,$000
 dn ___,0,$000
 dn ___,0,$000
 dn ___,0,$000
 dn ___,0,$000
 dn ___,0,$000
 dn ___,0,$000
 dn ___,0,$000
 dn ___,0,$000
 dn ___,0,$000
 dn ___,0,$000
 dn ___,0,$000
 dn ___,0,$000
 dn ___,0,$000
 dn ___,0,$000
 dn ___,1,$000

itNoiseSP4:
 dn ___,0,$000
 dn 36,0,$000
 dn 36,0,$000
 dn 36,4,$000
 dn 36,0,$000
 dn 36,0,$000
 dn 36,0,$000
 dn ___,0,$000
 dn ___,0,$000
 dn ___,0,$000
 dn ___,0,$000
 dn ___,0,$000
 dn ___,0,$000
 dn ___,0,$000
 dn ___,0,$000
 dn ___,0,$000
 dn ___,0,$000
 dn ___,0,$000
 dn ___,0,$000
 dn ___,0,$000
 dn ___,0,$000
 dn ___,0,$000
 dn ___,0,$000
 dn ___,0,$000
 dn ___,0,$000
 dn ___,0,$000
 dn ___,0,$000
 dn ___,0,$000
 dn ___,0,$000
 dn ___,0,$000
 dn ___,0,$000
 dn ___,1,$000

itNoiseSP5:
 dn ___,0,$000
 dn 36,0,$000
 dn 36,0,$000
 dn 36,4,$000
 dn 36,0,$000
 dn 36,0,$000
 dn 36,0,$000
 dn ___,0,$000
 dn ___,0,$000
 dn ___,0,$000
 dn ___,0,$000
 dn ___,0,$000
 dn ___,0,$000
 dn ___,0,$000
 dn ___,0,$000
 dn ___,0,$000
 dn ___,0,$000
 dn ___,0,$000
 dn ___,0,$000
 dn ___,0,$000
 dn ___,0,$000
 dn ___,0,$000
 dn ___,0,$000
 dn ___,0,$000
 dn ___,0,$000
 dn ___,0,$000
 dn ___,0,$000
 dn ___,0,$000
 dn ___,0,$000
 dn ___,0,$000
 dn ___,0,$000
 dn ___,1,$000

itNoiseSP6:
 dn ___,0,$000
 dn 36,0,$000
 dn 36,0,$000
 dn 36,4,$000
 dn 36,0,$000
 dn 36,0,$000
 dn 36,0,$000
 dn ___,0,$000
 dn ___,0,$000
 dn ___,0,$000
 dn ___,0,$000
 dn ___,0,$000
 dn ___,0,$000
 dn ___,0,$000
 dn ___,0,$000
 dn ___,0,$000
 dn ___,0,$000
 dn ___,0,$000
 dn ___,0,$000
 dn ___,0,$000
 dn ___,0,$000
 dn ___,0,$000
 dn ___,0,$000
 dn ___,0,$000
 dn ___,0,$000
 dn ___,0,$000
 dn ___,0,$000
 dn ___,0,$000
 dn ___,0,$000
 dn ___,0,$000
 dn ___,0,$000
 dn ___,1,$000

itNoiseSP7:
 dn ___,0,$000
 dn 36,0,$000
 dn 36,0,$000
 dn 36,4,$000
 dn 36,0,$000
 dn 36,0,$000
 dn 36,0,$000
 dn ___,0,$000
 dn ___,0,$000
 dn ___,0,$000
 dn ___,0,$000
 dn ___,0,$000
 dn ___,0,$000
 dn ___,0,$000
 dn ___,0,$000
 dn ___,0,$000
 dn ___,0,$000
 dn ___,0,$000
 dn ___,0,$000
 dn ___,0,$000
 dn ___,0,$000
 dn ___,0,$000
 dn ___,0,$000
 dn ___,0,$000
 dn ___,0,$000
 dn ___,0,$000
 dn ___,0,$000
 dn ___,0,$000
 dn ___,0,$000
 dn ___,0,$000
 dn ___,0,$000
 dn ___,1,$000

itNoiseSP8:
 dn ___,0,$000
 dn 36,0,$000
 dn 36,0,$000
 dn 36,4,$000
 dn 36,0,$000
 dn 36,0,$000
 dn 36,0,$000
 dn ___,0,$000
 dn ___,0,$000
 dn ___,0,$000
 dn ___,0,$000
 dn ___,0,$000
 dn ___,0,$000
 dn ___,0,$000
 dn ___,0,$000
 dn ___,0,$000
 dn ___,0,$000
 dn ___,0,$000
 dn ___,0,$000
 dn ___,0,$000
 dn ___,0,$000
 dn ___,0,$000
 dn ___,0,$000
 dn ___,0,$000
 dn ___,0,$000
 dn ___,0,$000
 dn ___,0,$000
 dn ___,0,$000
 dn ___,0,$000
 dn ___,0,$000
 dn ___,0,$000
 dn ___,1,$000

itNoiseSP9:
 dn ___,0,$000
 dn 36,0,$000
 dn 36,0,$000
 dn 36,4,$000
 dn 36,0,$000
 dn 36,0,$000
 dn 36,0,$000
 dn ___,0,$000
 dn ___,0,$000
 dn ___,0,$000
 dn ___,0,$000
 dn ___,0,$000
 dn ___,0,$000
 dn ___,0,$000
 dn ___,0,$000
 dn ___,0,$000
 dn ___,0,$000
 dn ___,0,$000
 dn ___,0,$000
 dn ___,0,$000
 dn ___,0,$000
 dn ___,0,$000
 dn ___,0,$000
 dn ___,0,$000
 dn ___,0,$000
 dn ___,0,$000
 dn ___,0,$000
 dn ___,0,$000
 dn ___,0,$000
 dn ___,0,$000
 dn ___,0,$000
 dn ___,1,$000

itNoiseSP10:
 dn ___,0,$000
 dn 36,0,$000
 dn 36,0,$000
 dn 36,4,$000
 dn 36,0,$000
 dn 36,0,$000
 dn 36,0,$000
 dn ___,0,$000
 dn ___,0,$000
 dn ___,0,$000
 dn ___,0,$000
 dn ___,0,$000
 dn ___,0,$000
 dn ___,0,$000
 dn ___,0,$000
 dn ___,0,$000
 dn ___,0,$000
 dn ___,0,$000
 dn ___,0,$000
 dn ___,0,$000
 dn ___,0,$000
 dn ___,0,$000
 dn ___,0,$000
 dn ___,0,$000
 dn ___,0,$000
 dn ___,0,$000
 dn ___,0,$000
 dn ___,0,$000
 dn ___,0,$000
 dn ___,0,$000
 dn ___,0,$000
 dn ___,1,$000

itNoiseSP11:
 dn ___,0,$000
 dn 36,0,$000
 dn 36,0,$000
 dn 36,4,$000
 dn 36,0,$000
 dn 36,0,$000
 dn 36,0,$000
 dn ___,0,$000
 dn ___,0,$000
 dn ___,0,$000
 dn ___,0,$000
 dn ___,0,$000
 dn ___,0,$000
 dn ___,0,$000
 dn ___,0,$000
 dn ___,0,$000
 dn ___,0,$000
 dn ___,0,$000
 dn ___,0,$000
 dn ___,0,$000
 dn ___,0,$000
 dn ___,0,$000
 dn ___,0,$000
 dn ___,0,$000
 dn ___,0,$000
 dn ___,0,$000
 dn ___,0,$000
 dn ___,0,$000
 dn ___,0,$000
 dn ___,0,$000
 dn ___,0,$000
 dn ___,1,$000

itNoiseSP12:
 dn ___,0,$000
 dn 36,0,$000
 dn 36,0,$000
 dn 36,4,$000
 dn 36,0,$000
 dn 36,0,$000
 dn 36,0,$000
 dn ___,0,$000
 dn ___,0,$000
 dn ___,0,$000
 dn ___,0,$000
 dn ___,0,$000
 dn ___,0,$000
 dn ___,0,$000
 dn ___,0,$000
 dn ___,0,$000
 dn ___,0,$000
 dn ___,0,$000
 dn ___,0,$000
 dn ___,0,$000
 dn ___,0,$000
 dn ___,0,$000
 dn ___,0,$000
 dn ___,0,$000
 dn ___,0,$000
 dn ___,0,$000
 dn ___,0,$000
 dn ___,0,$000
 dn ___,0,$000
 dn ___,0,$000
 dn ___,0,$000
 dn ___,1,$000

itNoiseSP13:
 dn ___,0,$000
 dn 36,0,$000
 dn 36,0,$000
 dn 36,4,$000
 dn 36,0,$000
 dn 36,0,$000
 dn 36,0,$000
 dn ___,0,$000
 dn ___,0,$000
 dn ___,0,$000
 dn ___,0,$000
 dn ___,0,$000
 dn ___,0,$000
 dn ___,0,$000
 dn ___,0,$000
 dn ___,0,$000
 dn ___,0,$000
 dn ___,0,$000
 dn ___,0,$000
 dn ___,0,$000
 dn ___,0,$000
 dn ___,0,$000
 dn ___,0,$000
 dn ___,0,$000
 dn ___,0,$000
 dn ___,0,$000
 dn ___,0,$000
 dn ___,0,$000
 dn ___,0,$000
 dn ___,0,$000
 dn ___,0,$000
 dn ___,1,$000

itNoiseSP14:
 dn ___,0,$000
 dn 36,0,$000
 dn 36,0,$000
 dn 36,4,$000
 dn 36,0,$000
 dn 36,0,$000
 dn 36,0,$000
 dn ___,0,$000
 dn ___,0,$000
 dn ___,0,$000
 dn ___,0,$000
 dn ___,0,$000
 dn ___,0,$000
 dn ___,0,$000
 dn ___,0,$000
 dn ___,0,$000
 dn ___,0,$000
 dn ___,0,$000
 dn ___,0,$000
 dn ___,0,$000
 dn ___,0,$000
 dn ___,0,$000
 dn ___,0,$000
 dn ___,0,$000
 dn ___,0,$000
 dn ___,0,$000
 dn ___,0,$000
 dn ___,0,$000
 dn ___,0,$000
 dn ___,0,$000
 dn ___,0,$000
 dn ___,1,$000

itNoiseSP15:
 dn ___,0,$000
 dn 36,0,$000
 dn 36,0,$000
 dn 36,4,$000
 dn 36,0,$000
 dn 36,0,$000
 dn 36,0,$000
 dn ___,0,$000
 dn ___,0,$000
 dn ___,0,$000
 dn ___,0,$000
 dn ___,0,$000
 dn ___,0,$000
 dn ___,0,$000
 dn ___,0,$000
 dn ___,0,$000
 dn ___,0,$000
 dn ___,0,$000
 dn ___,0,$000
 dn ___,0,$000
 dn ___,0,$000
 dn ___,0,$000
 dn ___,0,$000
 dn ___,0,$000
 dn ___,0,$000
 dn ___,0,$000
 dn ___,0,$000
 dn ___,0,$000
 dn ___,0,$000
 dn ___,0,$000
 dn ___,0,$000
 dn ___,1,$000

duty_instruments:
itSquareinst1:
	db 8
	db 64
	db 119
	dw 0
	db 128

itSquareinst2:
	db 8
	db 64
	db 32
	dw 0
	db 128

itSquareinst3:
	db 8
	db 0
	db 240
	dw 0
	db 128

itSquareinst4:
	db 8
	db 0
	db 240
	dw 0
	db 128

itSquareinst5:
	db 8
	db 0
	db 240
	dw 0
	db 128

itSquareinst6:
	db 8
	db 192
	db 240
	dw 0
	db 128

itSquareinst7:
	db 8
	db 0
	db 240
	dw 0
	db 128

itSquareinst8:
	db 8
	db 0
	db 240
	dw 0
	db 128

itSquareinst9:
	db 8
	db 128
	db 240
	dw 0
	db 128

itSquareinst10:
	db 8
	db 128
	db 240
	dw 0
	db 128

itSquareinst11:
	db 8
	db 128
	db 240
	dw 0
	db 128

itSquareinst12:
	db 8
	db 128
	db 240
	dw 0
	db 128

itSquareinst13:
	db 8
	db 128
	db 240
	dw 0
	db 128

itSquareinst14:
	db 8
	db 128
	db 240
	dw 0
	db 128

itSquareinst15:
	db 8
	db 128
	db 240
	dw 0
	db 128



wave_instruments:
itWaveinst1:
	db 0
	db 32
	db 0
	dw 0
	db 128

itWaveinst2:
	db 0
	db 32
	db 0
	dw 0
	db 128

itWaveinst3:
	db 0
	db 32
	db 0
	dw 0
	db 128

itWaveinst4:
	db 0
	db 32
	db 0
	dw 0
	db 128

itWaveinst5:
	db 0
	db 32
	db 0
	dw 0
	db 128

itWaveinst6:
	db 0
	db 32
	db 0
	dw 0
	db 128

itWaveinst7:
	db 0
	db 32
	db 0
	dw 0
	db 128

itWaveinst8:
	db 0
	db 32
	db 0
	dw 0
	db 128

itWaveinst9:
	db 0
	db 32
	db 0
	dw 0
	db 128

itWaveinst10:
	db 0
	db 32
	db 0
	dw 0
	db 128

itWaveinst11:
	db 0
	db 32
	db 0
	dw 0
	db 128

itWaveinst12:
	db 0
	db 32
	db 11
	dw 0
	db 128

itWaveinst13:
	db 0
	db 32
	db 12
	dw 0
	db 128

itWaveinst14:
	db 0
	db 32
	db 13
	dw 0
	db 128

itWaveinst15:
	db 0
	db 32
	db 14
	dw 0
	db 128



noise_instruments:
itNoiseinst1:
	db 240
	dw itNoiseSP1
	db 0
	ds 2

itNoiseinst2:
	db 240
	dw itNoiseSP2
	db 0
	ds 2

itNoiseinst3:
	db 240
	dw itNoiseSP3
	db 0
	ds 2

itNoiseinst4:
	db 240
	dw itNoiseSP4
	db 0
	ds 2

itNoiseinst5:
	db 240
	dw itNoiseSP5
	db 0
	ds 2

itNoiseinst6:
	db 240
	dw itNoiseSP6
	db 0
	ds 2

itNoiseinst7:
	db 240
	dw itNoiseSP7
	db 0
	ds 2

itNoiseinst8:
	db 240
	dw itNoiseSP8
	db 0
	ds 2

itNoiseinst9:
	db 240
	dw itNoiseSP9
	db 0
	ds 2

itNoiseinst10:
	db 240
	dw itNoiseSP10
	db 0
	ds 2

itNoiseinst11:
	db 240
	dw itNoiseSP11
	db 0
	ds 2

itNoiseinst12:
	db 240
	dw itNoiseSP12
	db 0
	ds 2

itNoiseinst13:
	db 240
	dw itNoiseSP13
	db 0
	ds 2

itNoiseinst14:
	db 240
	dw itNoiseSP14
	db 0
	ds 2

itNoiseinst15:
	db 240
	dw itNoiseSP15
	db 0
	ds 2



routines:
__hUGE_Routine_0:

__end_hUGE_Routine_0:
	ret

__hUGE_Routine_1:

__end_hUGE_Routine_1:
	ret

__hUGE_Routine_2:

__end_hUGE_Routine_2:
	ret

__hUGE_Routine_3:

__end_hUGE_Routine_3:
	ret

__hUGE_Routine_4:

__end_hUGE_Routine_4:
	ret

__hUGE_Routine_5:

__end_hUGE_Routine_5:
	ret

__hUGE_Routine_6:

__end_hUGE_Routine_6:
	ret

__hUGE_Routine_7:

__end_hUGE_Routine_7:
	ret

__hUGE_Routine_8:

__end_hUGE_Routine_8:
	ret

__hUGE_Routine_9:

__end_hUGE_Routine_9:
	ret

__hUGE_Routine_10:

__end_hUGE_Routine_10:
	ret

__hUGE_Routine_11:

__end_hUGE_Routine_11:
	ret

__hUGE_Routine_12:

__end_hUGE_Routine_12:
	ret

__hUGE_Routine_13:

__end_hUGE_Routine_13:
	ret

__hUGE_Routine_14:

__end_hUGE_Routine_14:
	ret

__hUGE_Routine_15:

__end_hUGE_Routine_15:
	ret

waves:
wave0: db 236,150,0,0,0,0,36,105,206,255,255,255,255,255,255,255
wave1: db 0,0,0,0,0,0,0,0,0,0,0,0,0,0,0,0
wave2: db 0,0,0,0,0,0,0,0,0,0,0,0,0,0,0,0
wave3: db 0,0,0,0,0,0,0,0,0,0,0,0,0,0,0,0
wave4: db 0,0,0,0,0,0,0,0,0,0,0,0,0,0,0,0
wave5: db 0,0,0,0,0,0,0,0,0,0,0,0,0,0,0,0
wave6: db 0,0,0,0,0,0,0,0,0,0,0,0,0,0,0,0
wave7: db 0,0,0,0,0,0,0,0,0,0,0,0,0,0,0,0
wave8: db 0,0,0,0,0,0,0,0,0,0,0,0,0,0,0,0
wave9: db 0,0,0,0,0,0,0,0,0,0,0,0,0,0,0,0
wave10: db 0,0,0,0,0,0,0,0,0,0,0,0,0,0,0,0
wave11: db 0,0,0,0,0,0,0,0,0,0,0,0,0,0,0,0
wave12: db 0,0,0,0,0,0,0,0,0,0,0,0,0,0,0,0
wave13: db 0,0,0,0,0,0,0,0,0,0,0,0,0,0,0,0
wave14: db 0,0,0,0,0,0,0,0,0,0,0,0,0,0,0,0
wave15: db 0,0,0,0,0,0,0,0,0,0,0,0,0,0,0,0

